<svg width="49" height="50" viewBox="0 0 49 50" fill="none" xmlns="http://www.w3.org/2000/svg">
<path d="M14.21 0H34.79C42.63 0 49 6.5 49 14.5V35.5C49 39.3456 47.5029 43.0338 44.838 45.7531C42.1731 48.4723 38.5587 50 34.79 50H14.21C6.37 50 0 43.5 0 35.5V14.5C0 10.6544 1.49712 6.96623 4.16201 4.24695C6.8269 1.52767 10.4413 0 14.21 0ZM13.72 5C11.3808 5 9.13739 5.94821 7.48332 7.63604C5.82925 9.32387 4.9 11.6131 4.9 14V36C4.9 40.975 8.8445 45 13.72 45H35.28C37.6192 45 39.8626 44.0518 41.5167 42.364C43.1708 40.6761 44.1 38.3869 44.1 36V14C44.1 9.025 40.1555 5 35.28 5H13.72ZM37.3625 8.75C38.1747 8.75 38.9537 9.07924 39.528 9.66529C40.1023 10.2513 40.425 11.0462 40.425 11.875C40.425 12.7038 40.1023 13.4987 39.528 14.0847C38.9537 14.6708 38.1747 15 37.3625 15C36.5503 15 35.7713 14.6708 35.197 14.0847C34.6227 13.4987 34.3 12.7038 34.3 11.875C34.3 11.0462 34.6227 10.2513 35.197 9.66529C35.7713 9.07924 36.5503 8.75 37.3625 8.75ZM24.5 12.5C27.7489 12.5 30.8647 13.817 33.1621 16.1612C35.4594 18.5054 36.75 21.6848 36.75 25C36.75 28.3152 35.4594 31.4946 33.1621 33.8388C30.8647 36.183 27.7489 37.5 24.5 37.5C21.2511 37.5 18.1353 36.183 15.8379 33.8388C13.5406 31.4946 12.25 28.3152 12.25 25C12.25 21.6848 13.5406 18.5054 15.8379 16.1612C18.1353 13.817 21.2511 12.5 24.5 12.5ZM24.5 17.5C22.5507 17.5 20.6812 18.2902 19.3028 19.6967C17.9244 21.1032 17.15 23.0109 17.15 25C17.15 26.9891 17.9244 28.8968 19.3028 30.3033C20.6812 31.7098 22.5507 32.5 24.5 32.5C26.4493 32.5 28.3188 31.7098 29.6972 30.3033C31.0756 28.8968 31.85 26.9891 31.85 25C31.85 23.0109 31.0756 21.1032 29.6972 19.6967C28.3188 18.2902 26.4493 17.5 24.5 17.5Z" fill="#101010"/>
</svg>
