<svg width="53" height="52" viewBox="0 0 53 52" fill="none" xmlns="http://www.w3.org/2000/svg">
<path d="M47.1111 0C48.6729 0 50.1708 0.608728 51.2752 1.69227C52.3796 2.77582 53 4.24542 53 5.77778V46.2222C53 47.7546 52.3796 49.2242 51.2752 50.3077C50.1708 51.3913 48.6729 52 47.1111 52H5.88889C4.32706 52 2.8292 51.3913 1.72482 50.3077C0.620434 49.2242 0 47.7546 0 46.2222V5.77778C0 4.24542 0.620434 2.77582 1.72482 1.69227C2.8292 0.608728 4.32706 0 5.88889 0H47.1111ZM45.6389 44.7778V29.4667C45.6389 26.9689 44.6276 24.5735 42.8274 22.8073C41.0273 21.0411 38.5858 20.0489 36.04 20.0489C33.5372 20.0489 30.6222 21.5511 29.2089 23.8044V20.5978H20.9939V44.7778H29.2089V30.5356C29.2089 28.3111 31.0344 26.4911 33.3017 26.4911C34.3949 26.4911 35.4435 26.9172 36.2165 27.6757C36.9896 28.4342 37.4239 29.4629 37.4239 30.5356V44.7778H45.6389ZM11.4244 16.0622C12.7364 16.0622 13.9946 15.5509 14.9223 14.6407C15.8499 13.7305 16.3711 12.4961 16.3711 11.2089C16.3711 8.52222 14.1628 6.32667 11.4244 6.32667C10.1047 6.32667 8.839 6.84104 7.9058 7.75664C6.9726 8.67223 6.44833 9.91404 6.44833 11.2089C6.44833 13.8956 8.68611 16.0622 11.4244 16.0622ZM15.5172 44.7778V20.5978H7.36111V44.7778H15.5172Z" fill="#101010"/>
</svg>
