<svg width="58" height="50" viewBox="0 0 58 50" fill="none" xmlns="http://www.w3.org/2000/svg">
<path d="M58 5.88235C55.8652 6.91176 53.5641 7.58824 51.1797 7.91176C53.6195 6.35294 55.5048 3.88235 56.392 0.911765C54.0908 2.38235 51.5402 3.41177 48.8509 4C46.6606 1.47059 43.5832 0 40.0899 0C33.5746 0 28.2514 5.64706 28.2514 12.6176C28.2514 13.6176 28.3623 14.5882 28.5564 15.5C18.6864 14.9706 9.89771 9.94118 4.0478 2.32353C3.02199 4.17647 2.43977 6.35294 2.43977 8.64706C2.43977 13.0294 4.51912 16.9118 7.73518 19.1176C5.76673 19.1176 3.9369 18.5294 2.32887 17.6471V17.7353C2.32887 23.8529 6.43212 28.9706 11.8662 30.1176C10.1218 30.6263 8.28978 30.6968 6.5153 30.3235C7.26832 32.8308 8.74308 35.0247 10.7323 36.5969C12.7215 38.169 15.125 39.0403 17.6052 39.0882C13.4012 42.6191 8.18989 44.5276 2.82792 44.5C1.88528 44.5 0.942639 44.4412 0 44.3235C5.26769 47.9118 11.5335 50 18.2428 50C40.0899 50 52.0947 30.7647 52.0947 14.0882C52.0947 13.5294 52.0946 13 52.0669 12.4412C54.3958 10.6765 56.392 8.44118 58 5.88235Z" fill="#101010"/>
</svg>
